<svg xmlns="http://www.w3.org/2000/svg" viewBox="0 0 24 24" role="img" aria-label="noon"><rect width="24" height="24" rx="5" fill="#FEEE00"/><path fill="#3D3D3D" d="M2.7 16.4V9.3h2.1v.95c.5-.72 1.28-1.13 2.2-1.13 1.6 0 2.6 1.05 2.6 2.75v4.53H7.4v-4.1c0-.9-.45-1.42-1.25-1.42-.85 0-1.35.58-1.35 1.55v3.97H2.7zm11.15.18c-2.2 0-3.75-1.6-3.75-3.75s1.55-3.73 3.75-3.73S17.6 10.7 17.6 12.83s-1.55 3.75-3.75 3.75zm0-1.93c.93 0 1.55-.72 1.55-1.82s-.62-1.8-1.55-1.8-1.55.7-1.55 1.8.62 1.82 1.55 1.82zm5.15 1.75V9.3h2.1v.95c.5-.72 1.28-1.13 2.2-1.13.24 0 .46.02.7.08v2.1a3 3 0 0 0-.9-.13c-1.03 0-1.6.62-1.6 1.72v3.5H19z"/></svg>
